<?xml version="1.0" encoding="UTF-8" standalone="no"?>
<!-- Generator: Adobe Illustrator 24.1.0, SVG Export Plug-In . SVG Version: 6.00 Build 0)  -->

<svg
   xmlns:dc="http://purl.org/dc/elements/1.1/"
   xmlns:cc="http://creativecommons.org/ns#"
   xmlns:rdf="http://www.w3.org/1999/02/22-rdf-syntax-ns#"
   xmlns:svg="http://www.w3.org/2000/svg"
   xmlns="http://www.w3.org/2000/svg"
   xmlns:sodipodi="http://sodipodi.sourceforge.net/DTD/sodipodi-0.dtd"
   xmlns:inkscape="http://www.inkscape.org/namespaces/inkscape"
   version="1.1"
   id="Layer_1"
   x="0px"
   y="0px"
   viewBox="0 0 60 60"
   style="enable-background:new 0 0 60 60;"
   xml:space="preserve"
   sodipodi:docname="aprendizado.svg"
   inkscape:version="0.92.5 (2060ec1f9f, 2020-04-08)"><metadata
   id="metadata3985"><rdf:RDF><cc:Work
       rdf:about=""><dc:format>image/svg+xml</dc:format><dc:type
         rdf:resource="http://purl.org/dc/dcmitype/StillImage" /></cc:Work></rdf:RDF></metadata><defs
   id="defs3983" /><sodipodi:namedview
   pagecolor="#ffffff"
   bordercolor="#666666"
   borderopacity="1"
   objecttolerance="10"
   gridtolerance="10"
   guidetolerance="10"
   inkscape:pageopacity="0"
   inkscape:pageshadow="2"
   inkscape:window-width="1366"
   inkscape:window-height="703"
   id="namedview3981"
   showgrid="false"
   inkscape:zoom="2.7812867"
   inkscape:cx="50.811853"
   inkscape:cy="25.644436"
   inkscape:window-x="0"
   inkscape:window-y="28"
   inkscape:window-maximized="1"
   inkscape:current-layer="Layer_1" />
<style
   type="text/css"
   id="style3970">
	.st0{fill:#F7DF1E;}
</style>

<path
   style="fill:#ef9f35;stroke-width:0.09382597"
   d="m 8.2742929,17.010594 c -0.080031,0.653136 -0.080031,1.313456 0,1.966593 l 2.3644141,0.435352 c 0.147495,0.598061 0.385438,1.170091 0.705572,1.696373 l -1.3586001,1.981606 c 0.4048581,0.517437 0.8711741,0.983778 1.3886241,1.388625 l 1.981605,-1.358601 c 0.52627,0.320028 1.098327,0.558077 1.696374,0.705572 l 0.435353,2.364414 c 0.653122,0.08016 1.31347,0.08016 1.966592,0 l 0.435353,-2.364414 c 0.598047,-0.147388 1.170104,-0.385438 1.696374,-0.705572 l 1.981605,1.358601 c 0.51745,-0.404847 0.983765,-0.871188 1.388624,-1.388625 l -1.3586,-1.981606 C 21.917718,20.58263 22.15566,20.0106 22.303154,19.412539 l 2.364416,-0.435352 c 0.08003,-0.653137 0.08003,-1.313457 0,-1.966593 L 22.303154,16.575242 C 22.15566,15.977208 21.917718,15.405151 21.597583,14.878867 l 1.3586,-1.981605 c -0.404859,-0.517436 -0.871174,-0.983779 -1.388624,-1.388624 l -1.981605,1.3586 C 19.059684,12.547211 18.487627,12.30916 17.88958,12.161667 L 17.454227,9.7972524 c -0.653122,-0.08016 -1.31347,-0.08016 -1.966592,0 l -0.435353,2.3644146 c -0.598047,0.147387 -1.170104,0.385436 -1.696374,0.705571 l -1.981605,-1.3586 c -0.51745,0.404845 -0.983766,0.871188 -1.3886241,1.388624 l 1.3586001,1.981605 c -0.320134,0.526284 -0.558077,1.098341 -0.705572,1.696375 z m 8.1966381,-2.019136 c 1.658186,0 3.002432,1.344232 3.002432,3.002432 0,1.6582 -1.344246,3.002432 -3.002432,3.002432 -1.658187,0 -3.002432,-1.344232 -3.002432,-3.002432 0,-1.6582 1.344245,-3.002432 3.002432,-3.002432 z"
   id="path2"
   inkscape:connector-curvature="0" /><path
   style="fill:#f7d04f;stroke-width:0.09382597"
   d="M 49.325039,30.086183 C 49.177545,29.48815 48.939602,28.916092 48.619469,28.38981 l 1.3586,-1.981606 C 49.57321,25.890768 49.106892,25.424426 48.589443,25.01958 l -1.981604,1.3586 C 46.08157,26.058154 45.509511,25.820103 44.911465,25.672608 l -0.435352,-2.364414 c -0.653121,-0.08016 -1.313469,-0.08016 -1.966594,0 l -0.435352,2.364414 c -0.598046,0.147388 -1.170104,0.385438 -1.696374,0.705572 l -1.981604,-1.3586 c -0.517452,0.404846 -0.983766,0.871188 -1.388626,1.388624 l 1.3586,1.981606 c -0.320133,0.526282 -0.558076,1.09834 -0.70557,1.696373 l -2.364415,0.435353 c -0.08003,0.653136 -0.08003,1.313456 0,1.966592 l 2.364415,0.435354 c 0.147494,0.598059 0.385437,1.17009 0.70557,1.696373 l -1.3586,1.981605 c 0.40486,0.517438 0.871174,0.983779 1.388626,1.388624 l 1.981604,-1.3586 c 0.52627,0.320027 1.098328,0.558078 1.696374,0.705572 l 0.435352,2.364415 c 0.653125,0.08016 1.313473,0.08016 1.966594,0 l 0.435352,-2.364415 c 0.598046,-0.147388 1.170105,-0.385437 1.696374,-0.705572 l 1.981604,1.3586 c 0.517449,-0.404845 0.983767,-0.871186 1.388626,-1.388624 l -1.3586,-1.981605 c 0.320133,-0.526283 0.558076,-1.098314 0.70557,-1.696373 l 2.364415,-0.435354 c 0.08005,-0.653136 0.08005,-1.313456 0,-1.966592 z m -5.832222,4.421081 c -1.658189,0 -3.002432,-1.344232 -3.002432,-3.002432 0,-1.6582 1.344243,-3.002432 3.002432,-3.002432 1.658185,0 3.00243,1.344232 3.00243,3.002432 0,1.6582 -1.344245,3.002432 -3.00243,3.002432 z"
   id="path4"
   inkscape:connector-curvature="0" /><path
   style="fill:#63c8cd;stroke-width:0.09382597"
   d="m 10.638707,46.434424 c 0.147495,0.59806 0.385438,1.170091 0.705572,1.696374 l -1.3586001,1.981605 c 0.4048581,0.517436 0.8711741,0.983779 1.3886241,1.388624 l 1.981605,-1.3586 c 0.52627,0.320027 1.098327,0.558077 1.696374,0.705572 l 0.435353,2.364415 c 0.653122,0.08016 1.31347,0.08016 1.966592,0 l 0.435353,-2.364415 c 0.598047,-0.147388 1.170104,-0.385437 1.696374,-0.705572 l 1.981605,1.3586 c 0.51745,-0.404845 0.983765,-0.871188 1.388624,-1.388624 l -1.3586,-1.981605 c 0.320135,-0.526283 0.558077,-1.098314 0.705571,-1.696374 l 2.364416,-0.435353 c 0.08003,-0.653136 0.08003,-1.313456 0,-1.966592 L 22.303154,43.597126 C 22.15566,42.999093 21.917718,42.427035 21.597583,41.900752 l 1.3586,-1.981605 C 22.551324,39.40171 22.085009,38.935368 21.567559,38.530523 l -1.981605,1.3586 c -0.52627,-0.320027 -1.098327,-0.558077 -1.696374,-0.705572 l -0.435353,-2.364415 c -0.653122,-0.08016 -1.31347,-0.08016 -1.966592,0 l -0.435353,2.364415 c -0.598047,0.147388 -1.170104,0.385437 -1.696374,0.705572 l -1.981605,-1.3586 c -0.51745,0.404845 -0.983766,0.871187 -1.3886241,1.388624 l 1.3586001,1.981605 c -0.320134,0.526283 -0.558077,1.098341 -0.705572,1.696374 l -2.3644141,0.435353 c -0.080031,0.653136 -0.080031,1.313456 0,1.966592 z m 5.832224,-4.421081 c 1.658186,0 3.002432,1.344232 3.002432,3.002432 0,1.6582 -1.344246,3.002432 -3.002432,3.002432 -1.658187,0 -3.002432,-1.344232 -3.002432,-3.002432 0,-1.6582 1.344245,-3.002432 3.002432,-3.002432 z"
   id="path6"
   inkscape:connector-curvature="0" /><g
   id="g64"
   transform="matrix(0.09382599,0,0,0.09382599,8.4859539,8.986596)"><path
     style="fill:#3c3c48"
     d="m 7.2,77.68 c -3.454,0.645 -6.083,3.469 -6.48,6.96 -0.96,7.543 -0.96,15.177 0,22.72 0.397,3.491 3.026,6.315 6.48,6.96 l 20.32,3.76 c 1.175,3.698 2.674,7.285 4.48,10.72 l -11.76,16.96 c -2.094,2.828 -2.094,6.692 0,9.52 4.687,5.942 10.058,11.313 16,16 2.828,2.094 6.692,2.094 9.52,0 L 63.2,160 c 3.435,1.806 7.022,3.305 10.72,4.48 l 3.76,20.32 c 0.645,3.454 3.469,6.083 6.96,6.48 7.543,0.96 15.177,0.96 22.72,0 3.491,-0.397 6.315,-3.026 6.96,-6.48 l 3.76,-20.32 c 3.698,-1.175 7.285,-2.674 10.72,-4.48 l 16.96,11.76 c 2.828,2.094 6.692,2.094 9.52,0 5.942,-4.687 11.313,-10.058 16,-16 2.094,-2.828 2.094,-6.692 0,-9.52 L 160,128.8 c 1.806,-3.435 3.305,-7.022 4.48,-10.72 l 20.32,-3.76 c 3.454,-0.645 6.083,-3.469 6.48,-6.96 0.96,-7.543 0.96,-15.177 0,-22.72 -0.397,-3.491 -3.026,-6.315 -6.48,-6.96 L 164.48,73.92 C 163.305,70.222 161.806,66.635 160,63.2 l 11.76,-16.96 c 2.094,-2.828 2.094,-6.692 0,-9.52 -4.687,-5.942 -10.058,-11.313 -16,-16 -2.828,-2.094 -6.692,-2.094 -9.52,0 L 128.8,32 c -3.435,-1.806 -7.022,-3.305 -10.72,-4.48 L 114.32,7.2 C 113.675,3.746 110.851,1.117 107.36,0.72 99.817,-0.24 92.183,-0.24 84.64,0.72 81.149,1.117 78.325,3.746 77.68,7.2 L 73.92,27.52 C 70.222,28.695 66.635,30.194 63.2,32 L 46.24,20.24 c -2.828,-2.094 -6.692,-2.094 -9.52,0 -5.942,4.687 -11.313,10.058 -16,16 -2.094,2.828 -2.094,6.692 0,9.52 L 32,63.2 c -1.806,3.435 -3.305,7.022 -4.48,10.72 z M 35.28,88.8 c 3.107,-0.576 5.583,-2.927 6.32,-6 1.341,-5.655 3.583,-11.057 6.64,-16 1.582,-2.66 1.489,-5.993 -0.24,-8.56 l -11.04,-16 c 1.611,-1.851 3.349,-3.589 5.2,-5.2 L 58.24,48 c 2.651,1.723 6.069,1.723 8.72,0 4.943,-3.057 10.345,-5.299 16,-6.64 3.073,-0.737 5.424,-3.213 6,-6.32 L 92.32,16 h 7.36 l 3.52,19.2 c 0.576,3.107 2.927,5.583 6,6.32 5.655,1.341 11.057,3.583 16,6.64 2.651,1.723 6.069,1.723 8.72,0 l 16,-11.04 c 1.851,1.611 3.589,3.349 5.2,5.2 L 144,58.24 c -1.723,2.651 -1.723,6.069 0,8.72 3.057,4.943 5.299,10.345 6.64,16 0.737,3.073 3.213,5.424 6.32,6 l 19.2,3.52 v 3.68 c 0,0 0,2.4 0,3.68 l -19.2,3.52 c -3.107,0.576 -5.583,2.927 -6.32,6 -1.341,5.655 -3.583,11.057 -6.64,16 -1.723,2.651 -1.723,6.069 0,8.72 l 11.04,16 c -1.611,1.851 -3.349,3.589 -5.2,5.2 l -16,-11.04 c -2.651,-1.723 -6.069,-1.723 -8.72,0 -4.943,3.057 -10.345,5.299 -16,6.64 -3.073,0.737 -5.424,3.213 -6,6.32 L 99.68,176 c -2.56,0 -4.8,0 -7.36,0 L 88.8,156.8 c -0.576,-3.107 -2.927,-5.583 -6,-6.32 -5.655,-1.341 -11.057,-3.583 -16,-6.64 -2.651,-1.723 -6.069,-1.723 -8.72,0 l -16,11.04 c -1.851,-1.611 -3.589,-3.349 -5.2,-5.2 l 11.04,-16 c 1.723,-2.651 1.723,-6.069 0,-8.72 -3.057,-4.943 -5.299,-10.345 -6.64,-16 -0.737,-3.073 -3.213,-5.424 -6.32,-6 L 16,99.68 c 0,-1.28 0,-2.48 0,-3.68 0,-1.2 0,-2.4 0,-3.68 z"
     id="path8"
     inkscape:connector-curvature="0" /><path
     style="fill:#3c3c48"
     d="m 472.8,221.68 -20.32,-3.76 c -1.175,-3.698 -2.674,-7.285 -4.48,-10.72 l 11.76,-16.96 c 2.094,-2.828 2.094,-6.692 0,-9.52 -4.687,-5.942 -10.058,-11.313 -16,-16 -2.828,-2.094 -6.692,-2.094 -9.52,0 L 416.8,176 c -3.435,-1.806 -7.022,-3.305 -10.72,-4.48 l -3.76,-20.32 c -0.645,-3.454 -3.469,-6.083 -6.96,-6.48 -7.543,-0.96 -15.177,-0.96 -22.72,0 -3.491,0.397 -6.315,3.026 -6.96,6.48 l -3.76,20.32 c -3.698,1.175 -7.285,2.674 -10.72,4.48 l -16.96,-11.76 c -2.828,-2.094 -6.692,-2.094 -9.52,0 -5.942,4.687 -11.313,10.058 -16,16 -2.094,2.828 -2.094,6.692 0,9.52 L 320,207.2 c -1.806,3.435 -3.305,7.022 -4.48,10.72 l -20.32,3.76 c -3.454,0.645 -6.083,3.469 -6.48,6.96 -0.96,7.543 -0.96,15.177 0,22.72 0.397,3.491 3.026,6.315 6.48,6.96 l 20.32,3.76 c 1.175,3.698 2.674,7.285 4.48,10.72 l -11.76,16.96 c -2.094,2.828 -2.094,6.692 0,9.52 4.687,5.942 10.058,11.313 16,16 2.828,2.094 6.692,2.094 9.52,0 L 351.2,304 c 3.435,1.806 7.022,3.305 10.72,4.48 l 3.76,20.32 c 0.645,3.454 3.469,6.083 6.96,6.48 7.543,0.96 15.177,0.96 22.72,0 3.491,-0.397 6.315,-3.026 6.96,-6.48 l 3.76,-20.32 c 3.698,-1.175 7.285,-2.674 10.72,-4.48 l 16.96,11.76 c 2.828,2.094 6.692,2.094 9.52,0 5.942,-4.687 11.313,-10.058 16,-16 2.094,-2.828 2.094,-6.692 0,-9.52 L 448,272.8 c 1.806,-3.435 3.305,-7.022 4.48,-10.72 l 20.32,-3.76 c 3.454,-0.645 6.083,-3.469 6.48,-6.96 0.96,-7.543 0.96,-15.177 0,-22.72 -0.397,-3.492 -3.026,-6.315 -6.48,-6.96 z m -8.8,22 -19.2,3.52 c -3.107,0.576 -5.583,2.927 -6.32,6 -1.341,5.655 -3.583,11.057 -6.64,16 -1.723,2.651 -1.723,6.069 0,8.72 l 11.04,16 c -1.611,1.851 -3.349,3.589 -5.2,5.2 l -16,-11.04 c -2.651,-1.723 -6.069,-1.723 -8.72,0 -4.943,3.057 -10.345,5.299 -16,6.64 -3.073,0.737 -5.424,3.213 -6,6.32 L 387.68,320 h -7.36 l -3.52,-19.2 c -0.576,-3.107 -2.927,-5.583 -6,-6.32 -5.655,-1.341 -11.057,-3.583 -16,-6.64 -2.651,-1.723 -6.069,-1.723 -8.72,0 l -16,11.04 c -1.851,-1.611 -3.589,-3.349 -5.2,-5.2 l 11.04,-16 c 1.723,-2.651 1.723,-6.069 0,-8.72 -3.057,-4.943 -5.299,-10.345 -6.64,-16 -0.737,-3.073 -3.213,-5.424 -6.32,-6 L 304,243.68 c 0,-1.28 0,-2.48 0,-3.68 0,-1.2 0,-2.4 0,-3.68 l 19.2,-3.52 c 3.107,-0.576 5.583,-2.927 6.32,-6 1.341,-5.655 3.583,-11.057 6.64,-16 1.723,-2.651 1.723,-6.069 0,-8.72 l -11.04,-16 c 1.611,-1.851 3.349,-3.589 5.2,-5.2 l 16,11.04 c 2.651,1.723 6.069,1.723 8.72,0 4.943,-3.057 10.345,-5.299 16,-6.64 3.073,-0.737 5.424,-3.213 6,-6.32 l 3.52,-19.2 h 7.36 l 3.52,19.2 c 0.576,3.107 2.927,5.583 6,6.32 5.655,1.341 11.057,3.583 16,6.64 2.651,1.723 6.069,1.723 8.72,0 l 16,-11.04 c 1.851,1.611 3.589,3.349 5.2,5.2 l -11.04,16 c -1.723,2.651 -1.723,6.069 0,8.72 3.057,4.943 5.299,10.345 6.64,16 0.737,3.073 3.213,5.424 6.32,6 l 19.2,3.52 V 240 c 0,0 -0.48,2.4 -0.48,3.68 z"
     id="path10"
     inkscape:connector-curvature="0" /><path
     style="fill:#3c3c48"
     d="m 7.2,402.32 20.32,3.76 c 1.175,3.698 2.674,7.285 4.48,10.72 l -11.76,16.96 c -2.094,2.828 -2.094,6.692 0,9.52 4.687,5.942 10.058,11.313 16,16 2.828,2.094 6.692,2.094 9.52,0 L 63.2,448 c 3.435,1.806 7.022,3.305 10.72,4.48 l 3.76,20.32 c 0.645,3.454 3.469,6.083 6.96,6.48 7.543,0.96 15.177,0.96 22.72,0 3.491,-0.397 6.315,-3.026 6.96,-6.48 l 3.76,-20.32 c 3.698,-1.175 7.285,-2.674 10.72,-4.48 l 16.96,11.76 c 2.828,2.094 6.692,2.094 9.52,0 5.942,-4.687 11.313,-10.058 16,-16 2.094,-2.828 2.094,-6.692 0,-9.52 L 160,416.8 c 1.806,-3.435 3.305,-7.022 4.48,-10.72 l 20.32,-3.76 c 3.454,-0.645 6.083,-3.469 6.48,-6.96 0.96,-7.543 0.96,-15.177 0,-22.72 -0.397,-3.491 -3.026,-6.315 -6.48,-6.96 l -20.32,-3.76 c -1.175,-3.698 -2.674,-7.285 -4.48,-10.72 l 11.76,-16.96 c 2.094,-2.828 2.094,-6.692 0,-9.52 -4.687,-5.942 -10.058,-11.313 -16,-16 -2.828,-2.094 -6.692,-2.094 -9.52,0 L 128.8,320 c -3.435,-1.806 -7.022,-3.305 -10.72,-4.48 l -3.76,-20.32 c -0.645,-3.454 -3.469,-6.083 -6.96,-6.48 -7.543,-0.96 -15.177,-0.96 -22.72,0 -3.491,0.397 -6.315,3.026 -6.96,6.48 l -3.76,20.32 c -3.698,1.175 -7.285,2.674 -10.72,4.48 L 46.24,308.24 c -2.828,-2.094 -6.692,-2.094 -9.52,0 -5.942,4.687 -11.313,10.058 -16,16 -2.094,2.828 -2.094,6.692 0,9.52 L 32,351.2 c -1.806,3.435 -3.305,7.022 -4.48,10.72 L 7.2,365.68 c -3.454,0.645 -6.083,3.469 -6.48,6.96 -0.96,7.543 -0.96,15.177 0,22.72 0.397,3.491 3.026,6.315 6.48,6.96 z m 8.8,-22 19.2,-3.52 c 3.107,-0.576 5.583,-2.927 6.32,-6 1.341,-5.655 3.583,-11.057 6.64,-16 1.723,-2.651 1.723,-6.069 0,-8.72 l -11.04,-16 c 1.611,-1.851 3.349,-3.589 5.2,-5.2 l 16,11.04 c 2.651,1.723 6.069,1.723 8.72,0 4.943,-3.057 10.345,-5.299 16,-6.64 3.073,-0.737 5.424,-3.213 6,-6.32 l 3.52,-19.2 h 7.36 l 3.52,19.2 c 0.576,3.107 2.927,5.583 6,6.32 5.655,1.341 11.057,3.583 16,6.64 2.651,1.723 6.069,1.723 8.72,0 l 16,-11.04 c 1.851,1.611 3.589,3.349 5.2,5.2 l -11.04,16 c -1.723,2.651 -1.723,6.069 0,8.72 3.057,4.943 5.299,10.345 6.64,16 0.737,3.073 3.213,5.424 6.32,6 l 19.2,3.52 V 384 c 0,0 0,2.4 0,3.68 l -19.2,3.52 c -3.107,0.576 -5.583,2.927 -6.32,6 -1.341,5.655 -3.583,11.057 -6.64,16 -1.723,2.651 -1.723,6.069 0,8.72 l 11.04,16 c -1.611,1.851 -3.349,3.589 -5.2,5.2 l -16,-11.04 c -2.651,-1.723 -6.069,-1.723 -8.72,0 -4.943,3.057 -10.345,5.299 -16,6.64 -3.073,0.737 -5.424,3.213 -6,6.32 L 99.68,464 H 92.32 L 88.8,444.8 c -0.576,-3.107 -2.927,-5.583 -6,-6.32 -5.655,-1.341 -11.057,-3.583 -16,-6.64 -2.651,-1.723 -6.069,-1.723 -8.72,0 l -16,11.04 c -1.851,-1.611 -3.589,-3.349 -5.2,-5.2 l 11.04,-16 c 1.723,-2.651 1.723,-6.069 0,-8.72 -3.057,-4.943 -5.299,-10.345 -6.64,-16 -0.737,-3.073 -3.213,-5.424 -6.32,-6 L 16,387.68 c 0,-1.28 0,-2.48 0,-3.68 0,-1.2 0,-2.4 0,-3.68 z"
     id="path12"
     inkscape:connector-curvature="0" /><path
     style="fill:#3c3c48"
     d="m 217.441,77.032 6.878,-14.446 14.446,6.878 -6.878,14.446 z"
     id="path14"
     inkscape:connector-curvature="0" /><path
     style="fill:#3c3c48"
     d="m 275.232,104.479 6.878,-14.446 14.446,6.878 -6.878,14.446 z"
     id="path16"
     inkscape:connector-curvature="0" /><path
     style="fill:#3c3c48"
     d="m 246.394,90.719 6.878,-14.446 14.446,6.878 -6.878,14.446 z"
     id="path18"
     inkscape:connector-curvature="0" /><path
     style="fill:#3c3c48"
     d="m 188.578,63.245 6.883,-14.444 14.444,6.883 -6.883,14.444 z"
     id="path20"
     inkscape:connector-curvature="0" /><path
     style="fill:#3c3c48"
     d="m 304.151,118.239 6.878,-14.446 14.446,6.878 -6.878,14.446 z"
     id="path22"
     inkscape:connector-curvature="0" /><path
     style="fill:#3c3c48"
     d="m 332.99,131.998 6.878,-14.446 14.446,6.878 -6.878,14.446 z"
     id="path24"
     inkscape:connector-curvature="0" /><path
     style="fill:#3c3c48"
     d="m 269.064,276.059 6.883,-14.444 14.444,6.883 -6.883,14.444 z"
     id="path26"
     inkscape:connector-curvature="0" /><path
     style="fill:#3c3c48"
     d="m 124.56,207.289 6.883,-14.444 14.444,6.883 -6.883,14.444 z"
     id="path28"
     inkscape:connector-curvature="0" /><path
     style="fill:#3c3c48"
     d="m 153.406,221.057 6.883,-14.444 14.444,6.883 -6.883,14.444 z"
     id="path30"
     inkscape:connector-curvature="0" /><path
     style="fill:#3c3c48"
     d="m 225.68,255.36 6.88,-14.4 -1.28,-0.64 4.48,-2.48 -7.68,-14 -14,7.68 2.8,5.12 -5.68,11.84 z"
     id="path32"
     inkscape:connector-curvature="0" /><path
     style="fill:#3c3c48"
     d="m 240.138,262.29 6.883,-14.444 14.444,6.883 -6.883,14.444 z"
     id="path34"
     inkscape:connector-curvature="0" /><path
     style="fill:#3c3c48"
     d="m 216.164,401.577 14.018,-7.713 7.713,14.018 -14.018,7.713 z"
     id="path36"
     inkscape:connector-curvature="0" /><path
     style="fill:#3c3c48"
     d="m 244.283,386.113 14.018,-7.713 7.713,14.018 -14.018,7.713 z"
     id="path38"
     inkscape:connector-curvature="0" /><path
     style="fill:#3c3c48"
     d="m 188.147,416.988 14.02,-7.711 7.711,14.02 -14.02,7.711 z"
     id="path40"
     inkscape:connector-curvature="0" /><path
     style="fill:#3c3c48"
     d="m 328.378,339.869 14.018,-7.713 7.713,14.018 -14.018,7.713 z"
     id="path42"
     inkscape:connector-curvature="0" /><path
     style="fill:#3c3c48"
     d="m 300.35,355.295 14.021,-7.708 7.708,14.021 -14.021,7.708 z"
     id="path44"
     inkscape:connector-curvature="0" /><path
     style="fill:#3c3c48"
     d="m 272.256,370.752 14.02,-7.711 7.711,14.02 -14.02,7.711 z"
     id="path46"
     inkscape:connector-curvature="0" /><path
     style="fill:#3c3c48"
     d="m 193.68,260.96 14.08,-7.68 -7.76,-14 -2.8,1.52 6.48,-13.6 -14.48,-6.88 -6.88,14.4 13.92,6.64 -10.24,5.6 z"
     id="path48"
     inkscape:connector-curvature="0" /><path
     style="fill:#3c3c48"
     d="m 157.9,262.435 14.021,-7.708 7.708,14.021 -14.021,7.708 z"
     id="path50"
     inkscape:connector-curvature="0" /><path
     style="fill:#3c3c48"
     d="m 129.906,277.759 14.018,-7.713 7.713,14.018 -14.018,7.713 z"
     id="path52"
     inkscape:connector-curvature="0" /><path
     style="fill:#3c3c48"
     d="m 242.107,216.108 14.02,-7.711 7.711,14.02 -14.02,7.711 z"
     id="path54"
     inkscape:connector-curvature="0" /><path
     style="fill:#3c3c48"
     d="m 270.08,200.686 14.02,-7.711 7.711,14.02 -14.02,7.711 z"
     id="path56"
     inkscape:connector-curvature="0" /><path
     style="fill:#3c3c48"
     d="m 96,136 c 22.091,0 40,-17.909 40,-40 0,-22.091 -17.909,-40 -40,-40 -22.091,0 -40,17.908 -40,40 0,22.092 17.908,40 40,40 z m 0,-64 c 13.255,0 24,10.745 24,24 0,13.255 -10.745,24 -24,24 C 82.745,120 72,109.255 72,96 72,82.745 82.745,72 96,72 Z"
     id="path58"
     inkscape:connector-curvature="0" /><path
     style="fill:#3c3c48"
     d="m 384,200 c -22.091,0 -40,17.909 -40,40 0,22.091 17.909,40 40,40 22.091,0 40,-17.909 40,-40 0,-22.091 -17.909,-40 -40,-40 z m 0,64 c -13.255,0 -24,-10.745 -24,-24 0,-13.255 10.745,-24 24,-24 13.255,0 24,10.745 24,24 0,13.255 -10.745,24 -24,24 z"
     id="path60"
     inkscape:connector-curvature="0" /><path
     style="fill:#3c3c48"
     d="m 96,424 c 22.091,0 40,-17.909 40,-40 0,-22.091 -17.909,-40 -40,-40 -22.091,0 -40,17.909 -40,40 0,22.091 17.908,40 40,40 z m 0,-64 c 13.255,0 24,10.745 24,24 0,13.255 -10.745,24 -24,24 -13.255,0 -24,-10.745 -24,-24 0,-13.255 10.745,-24 24,-24 z"
     id="path62"
     inkscape:connector-curvature="0" /></g></svg>