<?xml version="1.0" encoding="utf-8"?>
<!-- Generator: Adobe Illustrator 24.1.0, SVG Export Plug-In . SVG Version: 6.00 Build 0)  -->
<svg version="1.1" id="Layer_1" xmlns="http://www.w3.org/2000/svg" xmlns:xlink="http://www.w3.org/1999/xlink" x="0px" y="0px"
	 viewBox="0 0 60 60" style="enable-background:new 0 0 60 60;" xml:space="preserve">
<style type="text/css">
	.st0{fill-rule:evenodd;clip-rule:evenodd;fill:#364548;}
	.st1{fill-rule:evenodd;clip-rule:evenodd;fill:#22A0C8;}
	.st2{fill-rule:evenodd;clip-rule:evenodd;fill:#37B1D9;}
	.st3{fill-rule:evenodd;clip-rule:evenodd;fill:#1B81A5;}
	.st4{fill-rule:evenodd;clip-rule:evenodd;fill:#1D91B4;}
	.st5{fill-rule:evenodd;clip-rule:evenodd;fill:#23A3C2;}
	.st6{fill-rule:evenodd;clip-rule:evenodd;fill:#34BBDE;}
	.st7{fill-rule:evenodd;clip-rule:evenodd;fill:#D3ECEC;}
	.st8{fill-rule:evenodd;clip-rule:evenodd;fill:#BDD9D7;}
</style>
<g>
	<path class="st0" d="M33.9,24.8h4.4v4.5h2.2c1,0,2.1-0.2,3.1-0.5c0.5-0.2,1-0.4,1.5-0.7c-0.6-0.8-0.9-1.8-1-2.9
		c-0.1-1.4,0.2-3.2,1.1-4.3l0.5-0.5l0.6,0.4c1.4,1.1,2.6,2.7,2.8,4.5c1.7-0.5,3.7-0.4,5.1,0.5l0.6,0.4l-0.3,0.6
		c-1.3,2.4-3.9,3.2-6.4,3.1C44.1,39.5,35.8,44,25.6,44c-5.2,0-10-2-12.7-6.6l0-0.1l-0.4-0.8c-0.9-2-1.2-4.3-1-6.5l0.1-0.7h3.8v-4.5
		h4.4v-4.4h8.8V16h5.3V24.8"/>
	<path class="st1" d="M48.2,26.5c0.3-2.3-1.4-4.1-2.5-5c-1.2,1.4-1.4,5.2,0.5,6.7c-1.1,1-3.4,1.8-5.7,1.8H12.2
		c-0.2,2.4,0.2,4.7,1.2,6.6l0.3,0.6c0.2,0.3,0.4,0.7,0.7,1h0c1.2,0.1,2.2,0.1,3.2,0.1h0c1.9,0,3.5-0.3,4.7-0.7
		c0.2-0.1,0.4,0,0.4,0.2c0.1,0.2,0,0.4-0.2,0.4c-0.2,0.1-0.3,0.1-0.5,0.2c0,0,0,0,0,0C21,38.7,20,38.9,18.7,39c0.1,0-0.1,0-0.1,0
		c0,0-0.1,0-0.1,0c-0.5,0-1.1,0-1.6,0c-0.6,0-1.2,0-1.9,0l0,0c2.4,2.7,6.1,4.2,10.7,4.2c9.8,0,18.1-4.3,21.8-14.1
		c2.6,0.3,5.1-0.4,6.3-2.6C51.9,25.5,49.5,25.8,48.2,26.5"/>
	<path class="st2" d="M48.2,26.5c0.3-2.3-1.4-4.1-2.5-5c-1.2,1.4-1.4,5.2,0.5,6.7c-1.1,1-3.4,1.8-5.7,1.8H13.8
		c-0.1,3.7,1.3,6.6,3.7,8.3h0c1.9,0,3.5-0.3,4.7-0.7c0.2-0.1,0.4,0,0.4,0.2c0.1,0.2,0,0.4-0.2,0.4c-0.2,0.1-0.3,0.1-0.5,0.2
		c0,0,0,0,0,0c-0.9,0.3-2,0.5-3.3,0.6c0,0,0,0,0,0c3.3,1.7,8.2,1.7,13.7-0.4c6.2-2.4,12-6.9,16-12.1C48.3,26.5,48.3,26.5,48.2,26.5"
		/>
	<path class="st3" d="M12.2,33.1c0.2,1.3,0.6,2.5,1.1,3.6l0.3,0.6c0.2,0.3,0.4,0.7,0.7,1c1.2,0.1,2.2,0.1,3.2,0.1
		c1.9,0,3.5-0.3,4.7-0.7c0.2-0.1,0.4,0,0.4,0.2c0.1,0.2,0,0.4-0.2,0.4c-0.2,0.1-0.3,0.1-0.5,0.2c0,0,0,0,0,0c-0.9,0.3-2,0.5-3.3,0.5
		c0,0-0.1,0-0.2,0c-0.5,0-1.1,0-1.6,0c-0.6,0-1.3,0-1.9,0c2.4,2.7,6.1,4.3,10.7,4.3c8.4,0,15.7-3.2,19.9-10.2H12.2"/>
	<path class="st4" d="M14.1,33.1c0.5,2.3,1.7,4.1,3.5,5.3c1.9,0,3.5-0.3,4.7-0.7c0.2-0.1,0.4,0,0.4,0.2c0.1,0.2,0,0.4-0.2,0.4
		c-0.2,0.1-0.3,0.1-0.5,0.2c0,0,0,0,0,0c-0.9,0.3-2.1,0.5-3.4,0.5c3.3,1.7,8.2,1.7,13.7-0.4c3.4-1.3,6.6-3.2,9.5-5.5H14.1"/>
	<path class="st5" d="M16,25.6h3.8v3.8H16V25.6z M16.3,25.9h0.3v3.2h-0.3V25.9z M16.9,25.9h0.3v3.2h-0.3V25.9z M17.5,25.9h0.3v3.2
		h-0.3V25.9z M18.1,25.9h0.3v3.2h-0.3V25.9z M18.6,25.9H19v3.2h-0.3V25.9z M19.2,25.9h0.3v3.2h-0.3V25.9z"/>
	<path class="st5" d="M20.4,21.2h3.8V25h-3.8V21.2z M20.8,21.5h0.3v3.2h-0.3V21.5z M21.3,21.5h0.3v3.2h-0.3V21.5z M21.9,21.5h0.3
		v3.2h-0.3V21.5z M22.5,21.5h0.3v3.2h-0.3V21.5z M23.1,21.5h0.3v3.2h-0.3V21.5z M23.7,21.5H24v3.2h-0.3V21.5z"/>
	<path class="st6" d="M20.4,25.6h3.8v3.8h-3.8V25.6z M20.8,25.9h0.3v3.2h-0.3V25.9z M21.3,25.9h0.3v3.2h-0.3V25.9z M21.9,25.9h0.3
		v3.2h-0.3V25.9z M22.5,25.9h0.3v3.2h-0.3V25.9z M23.1,25.9h0.3v3.2h-0.3V25.9z M23.7,25.9H24v3.2h-0.3V25.9z"/>
	<path class="st5" d="M24.9,25.6h3.8v3.8h-3.8V25.6z M25.2,25.9h0.3v3.2h-0.3V25.9z M25.8,25.9h0.3v3.2h-0.3V25.9z M26.3,25.9h0.3
		v3.2h-0.3V25.9z M26.9,25.9h0.3v3.2h-0.3V25.9z M27.5,25.9h0.3v3.2h-0.3V25.9z M28.1,25.9h0.3v3.2h-0.3V25.9z"/>
	<path class="st6" d="M24.9,21.2h3.8V25h-3.8V21.2z M25.2,21.5h0.3v3.2h-0.3V21.5z M25.8,21.5h0.3v3.2h-0.3V21.5z M26.3,21.5h0.3
		v3.2h-0.3V21.5z M26.9,21.5h0.3v3.2h-0.3V21.5z M27.5,21.5h0.3v3.2h-0.3V21.5z M28.1,21.5h0.3v3.2h-0.3V21.5z"/>
	<path class="st6" d="M29.3,25.6h3.8v3.8h-3.8V25.6z M29.6,25.9h0.3v3.2h-0.3V25.9z M30.2,25.9h0.3v3.2h-0.3V25.9z M30.8,25.9h0.3
		v3.2h-0.3V25.9z M31.3,25.9h0.3v3.2h-0.3V25.9z M31.9,25.9h0.3v3.2h-0.3V25.9z M32.5,25.9h0.3v3.2h-0.3V25.9z"/>
	<path class="st5" d="M29.3,21.2h3.8V25h-3.8V21.2z M29.6,21.5h0.3v3.2h-0.3V21.5z M30.2,21.5h0.3v3.2h-0.3V21.5z M30.8,21.5h0.3
		v3.2h-0.3V21.5z M31.3,21.5h0.3v3.2h-0.3V21.5z M31.9,21.5h0.3v3.2h-0.3V21.5z M32.5,21.5h0.3v3.2h-0.3V21.5z"/>
	<path class="st6" d="M29.3,16.7h3.8v3.8h-3.8V16.7z M29.6,17h0.3v3.2h-0.3V17z M30.2,17h0.3v3.2h-0.3V17z M30.8,17h0.3v3.2h-0.3V17
		z M31.3,17h0.3v3.2h-0.3V17z M31.9,17h0.3v3.2h-0.3V17z M32.5,17h0.3v3.2h-0.3V17z"/>
	<path class="st5" d="M33.7,25.6h3.8v3.8h-3.8V25.6z M34,25.9h0.3v3.2H34V25.9z M34.6,25.9h0.3v3.2h-0.3V25.9z M35.2,25.9h0.3v3.2
		h-0.3V25.9z M35.8,25.9h0.3v3.2h-0.3V25.9z M36.3,25.9h0.3v3.2h-0.3V25.9z M36.9,25.9h0.3v3.2h-0.3V25.9z"/>
	<path class="st7" d="M24,35.6c0.6,0,1.1,0.5,1.1,1.1c0,0.6-0.5,1.1-1.1,1.1c-0.6,0-1.1-0.5-1.1-1.1C23,36.1,23.5,35.6,24,35.6"/>
	<path class="st0" d="M24,35.9c0.1,0,0.2,0,0.3,0.1c-0.1,0.1-0.2,0.2-0.2,0.3c0,0.2,0.1,0.3,0.3,0.3c0.1,0,0.2-0.1,0.3-0.2
		c0,0.1,0.1,0.2,0.1,0.3c0,0.4-0.3,0.8-0.8,0.8c-0.4,0-0.8-0.3-0.8-0.8C23.3,36.3,23.6,35.9,24,35.9"/>
	<path class="st0" d="M5.3,33.4h49.2c-1.1-0.3-3.4-0.6-3-2c-1.9,2.3-6.6,1.6-7.8,0.5c-1.3,1.9-9,1.2-9.5-0.3c-1.7,1.9-6.8,1.9-8.4,0
		c-0.5,1.5-8.2,2.2-9.5,0.3c-1.2,1.1-5.9,1.8-7.8-0.5C8.7,32.8,6.4,33.2,5.3,33.4"/>
	<path class="st8" d="M26.8,43.3c-2.6-1.2-4.1-2.9-4.9-4.8c-1,0.3-2.1,0.5-3.5,0.5c-0.5,0-1.1,0-1.6,0c-0.7,0-1.3,0-2.1-0.1
		c2.4,2.4,5.4,4.3,10.8,4.3C26,43.3,26.4,43.3,26.8,43.3"/>
	<path class="st7" d="M23,40.2c-0.4-0.5-0.7-1.1-1-1.7c-1,0.3-2.1,0.5-3.5,0.5C19.4,39.5,20.8,40,23,40.2"/>
</g>
</svg>
