<?xml version="1.0" encoding="UTF-8" standalone="no"?>
<!-- Generator: Adobe Illustrator 19.0.0, SVG Export Plug-In . SVG Version: 6.00 Build 0)  -->

<svg
   xmlns:dc="http://purl.org/dc/elements/1.1/"
   xmlns:cc="http://creativecommons.org/ns#"
   xmlns:rdf="http://www.w3.org/1999/02/22-rdf-syntax-ns#"
   xmlns:svg="http://www.w3.org/2000/svg"
   xmlns="http://www.w3.org/2000/svg"
   xmlns:sodipodi="http://sodipodi.sourceforge.net/DTD/sodipodi-0.dtd"
   xmlns:inkscape="http://www.inkscape.org/namespaces/inkscape"
   version="1.1"
   id="Capa_1"
   x="0px"
   y="0px"
   viewBox="0 0 480.019 480.019"
   style="enable-background:new 0 0 480.019 480.019;"
   xml:space="preserve"
   sodipodi:docname="ideia.svg"
   inkscape:version="0.92.5 (2060ec1f9f, 2020-04-08)"><metadata
   id="metadata4409"><rdf:RDF><cc:Work
       rdf:about=""><dc:format>image/svg+xml</dc:format><dc:type
         rdf:resource="http://purl.org/dc/dcmitype/StillImage" /></cc:Work></rdf:RDF></metadata><defs
   id="defs4407" /><sodipodi:namedview
   pagecolor="#ffffff"
   bordercolor="#666666"
   borderopacity="1"
   objecttolerance="10"
   gridtolerance="10"
   guidetolerance="10"
   inkscape:pageopacity="0"
   inkscape:pageshadow="2"
   inkscape:window-width="1366"
   inkscape:window-height="703"
   id="namedview4405"
   showgrid="false"
   inkscape:zoom="0.49164719"
   inkscape:cx="240.00951"
   inkscape:cy="240.00951"
   inkscape:window-x="0"
   inkscape:window-y="28"
   inkscape:window-maximized="1"
   inkscape:current-layer="Capa_1" />
<g
   id="g4360"
   transform="matrix(0.95338981,0,0,0.95338981,16.841901,16.271873)">
	<path
   style="fill:#ef9f35"
   d="m 272.007,424.015 v -40 h -32 v 24 -24 h -72 l 24,88 h 96 l 24,-88 h -40 z"
   id="path4356"
   inkscape:connector-curvature="0" />
	<path
   style="fill:#ef9f35"
   d="m 152.007,384.015 h 16 72 32 40 16 v -40 h -88 -88 z"
   id="path4358"
   inkscape:connector-curvature="0" />
</g>
<path
   style="fill:#f7d04f;stroke-width:0.95338982"
   d="m 245.66213,115.43871 -30.50848,-30.50847 30.50848,30.50847 30.50847,-30.50847 -30.50847,30.50847 v 99.15254 h 30.50847 c 0.13062,-23.22171 9.13538,-45.51483 25.16949,-62.31356 28.76091,-30.77637 27.12585,-79.041729 -3.65053,-107.801687 -30.77637,-28.759957 -79.04173,-27.1268 -107.80169,3.649577 -27.86663,29.820126 -27.31938,76.29216 1.24036,105.44777 15.65847,16.42786 24.27998,38.32341 24.02542,61.01695 h 30.50848 z"
   id="path4362"
   inkscape:connector-curvature="0" />
<path
   style="fill:#1895aa;stroke-width:0.95338982"
   d="m 291.42484,229.84549 c 0,-8.42511 -6.82913,-15.25424 -15.25424,-15.25424 h -61.01695 c -8.4251,0 -15.25423,6.82913 -15.25423,15.25424 0,8.4251 6.82913,15.25424 15.25423,15.25424 h 61.01695 c 8.42415,0 15.25424,-6.83009 15.25424,-15.25424 z"
   id="path4364"
   inkscape:connector-curvature="0" />
<g
   id="g4370"
   transform="matrix(0.95338981,0,0,0.95338981,16.841901,16.271873)">
	<path
   style="fill:#63c8cd"
   d="m 138.487,173.535 c -26.32,-26.24 -74.08,-21.12 -74.08,-21.12 0,0 -5.12,48 21.12,74.08 26.24,26.08 74.48,21.52 74.48,21.52 l -56,-56 56,56 c 0,0 4.72,-48 -21.52,-74.48 z"
   id="path4366"
   inkscape:connector-curvature="0" />
	<path
   style="fill:#63c8cd"
   d="m 394.487,258.495 c 26.24,-26.48 21.52,-74.08 21.52,-74.08 0,0 -48,-5.12 -74.08,21.12 -26.08,26.24 -21.52,74.48 -21.52,74.48 l 56,-56 -56,56 c 0,0 47.6,4.72 74.08,-21.52 z"
   id="path4368"
   inkscape:connector-curvature="0" />
</g>
<path
   style="fill:#3c3c48;stroke-width:0.95338982"
   d="M 154.13671,176.45566 C 126.83162,149.15057 79.390947,153.5743 77.331625,154.1082 c -3.526589,0.40329 -6.308581,3.18528 -6.711865,6.71187 -0.381356,1.98305 -4.957627,49.42372 22.5,76.65254 19.90678,19.98305 50.64406,22.88135 66.50847,22.88135 h 6.55932 l 28.37288,28.44915 c 1.44534,1.35286 3.35975,2.09174 5.33899,2.05933 h 38.13559 v 45.76271 h -76.27119 c -4.21207,0 -7.62711,3.41504 -7.62711,7.62712 v 38.13559 c 0,4.21207 3.41504,7.62712 7.62711,7.62712 h 9.45763 l 21.05085,78.25423 c 0.92002,3.42648 4.08146,5.76515 7.62712,5.64407 h 91.52542 c 3.54566,0.12108 6.7071,-2.21759 7.62712,-5.64407 l 21.05084,-78.25423 h 9.45763 c 4.21208,0 7.62712,-3.41505 7.62712,-7.62712 v -38.13559 c 0,-4.21208 -3.41504,-7.62712 -7.62712,-7.62712 h -76.27118 v -15.25424 h 38.13559 c 2.02691,0.0114 3.97563,-0.78464 5.41525,-2.21186 l 28.37288,-28.29661 h 6.55933 c 15.8644,0 46.60169,-2.82204 66.50847,-22.88136 27.38135,-27.30508 22.88135,-74.74576 22.34746,-76.80508 -0.40329,-3.52659 -3.18528,-6.30858 -6.71187,-6.71187 -2.05932,-0.38135 -49.5,-4.88135 -76.72881,22.5 -23.33898,23.26271 -23.26271,61.01695 -22.88136,72.99153 l -26.00847,26.16101 h -35.00847 v -53.38983 h 22.88135 c 12.63337,-0.31462 22.61917,-10.81048 22.30551,-23.44385 -0.23072,-9.26409 -6.02638,-17.47468 -14.67839,-20.79343 1.58453,-19.09831 9.65975,-37.07733 22.88136,-50.94916 31.684,-33.81006 29.96122,-86.90338 -3.84884,-118.587384 -33.81006,-31.6840026 -86.90339,-29.9612276 -118.58739,3.848835 -30.71441,32.774681 -30.16716,83.925949 1.24131,116.036119 13.0929,13.35222 20.92024,30.98612 22.04238,49.65254 -11.7982,4.52669 -17.69301,17.7607 -13.16632,29.5589 3.31971,8.65201 11.52934,14.44767 20.79343,14.67839 h 22.88136 v 22.88135 h -35.00847 l -26.00848,-26.23729 c 0.45763,-11.89925 0.5339,-50.03485 -22.88135,-72.9162 z m 131.49152,282.20338 h -79.9322 l -18.68644,-68.64406 h 51.02542 v 15.25423 h 15.25424 v -15.25423 h 15.25423 v 30.50847 h 15.25424 v -30.50847 h 20.51695 z m 36.30508,-83.8983 H 169.39094 V 351.87938 H 321.93331 Z M 347.86552,217.6421 c 16.9322,-16.85593 45.22881,-18.30509 57.9661,-18.30509 0,12.66102 -1.37289,41.0339 -18.30509,57.9661 -13.01091,11.30435 -29.52648,17.77119 -46.75424,18.30509 l 39.96611,-39.9661 -10.83051,-10.83051 -39.9661,40.04237 c 0.27839,-17.34788 6.61938,-34.05127 17.92373,-47.21186 z M 177.7045,90.421765 c 4.46187,-30.939406 29.26335,-54.958155 60.33051,-58.423727 19.41483,-2.272882 38.86779,3.924152 53.38983,17.008474 28.25847,25.272457 30.68008,68.667898 5.40763,96.926368 -0.34895,0.38994 -0.7017,0.77606 -1.06017,1.15837 -15.62416,16.27818 -25.22956,37.39862 -27.22882,59.87288 h -15.25423 v -88.3983 L 281.58586,90.345494 270.75535,79.514986 245.66213,104.68447 220.56891,79.514986 209.7384,90.345494 238.03501,118.56583 v 88.3983 H 222.78077 C 221.44889,184.90651 212.27918,164.0511 196.92484,148.15905 181.87177,132.95916 174.76425,111.61085 177.7045,90.421765 Z m 29.82204,139.423725 c 0,-4.21208 3.41504,-7.62712 7.62711,-7.62712 h 61.01695 c 4.21208,0 7.62712,3.41504 7.62712,7.62712 0,4.21207 -3.41504,7.62712 -7.62712,7.62712 h -61.01695 c -4.21207,0 -7.62711,-3.41505 -7.62711,-7.62712 z m -103.72881,-3.05085 c -16.855936,-16.9322 -18.305089,-45.30508 -18.305089,-57.9661 12.584746,0 41.033899,1.37288 57.966099,18.30508 11.3482,13.01473 17.81981,29.56939 18.30508,46.83051 l -39.9661,-40.04237 -10.8305,10.83051 39.66101,40.34746 c -14.18644,-1.44916 -33.8644,-5.33899 -46.8305,-18.30509 z"
   id="path4372"
   inkscape:connector-curvature="0" />
<g
   id="g4374"
   transform="matrix(0.95338981,0,0,0.95338981,16.841901,16.271873)">
</g>
<g
   id="g4376"
   transform="matrix(0.95338981,0,0,0.95338981,16.841901,16.271873)">
</g>
<g
   id="g4378"
   transform="matrix(0.95338981,0,0,0.95338981,16.841901,16.271873)">
</g>
<g
   id="g4380"
   transform="matrix(0.95338981,0,0,0.95338981,16.841901,16.271873)">
</g>
<g
   id="g4382"
   transform="matrix(0.95338981,0,0,0.95338981,16.841901,16.271873)">
</g>
<g
   id="g4384"
   transform="matrix(0.95338981,0,0,0.95338981,16.841901,16.271873)">
</g>
<g
   id="g4386"
   transform="matrix(0.95338981,0,0,0.95338981,16.841901,16.271873)">
</g>
<g
   id="g4388"
   transform="matrix(0.95338981,0,0,0.95338981,16.841901,16.271873)">
</g>
<g
   id="g4390"
   transform="matrix(0.95338981,0,0,0.95338981,16.841901,16.271873)">
</g>
<g
   id="g4392"
   transform="matrix(0.95338981,0,0,0.95338981,16.841901,16.271873)">
</g>
<g
   id="g4394"
   transform="matrix(0.95338981,0,0,0.95338981,16.841901,16.271873)">
</g>
<g
   id="g4396"
   transform="matrix(0.95338981,0,0,0.95338981,16.841901,16.271873)">
</g>
<g
   id="g4398"
   transform="matrix(0.95338981,0,0,0.95338981,16.841901,16.271873)">
</g>
<g
   id="g4400"
   transform="matrix(0.95338981,0,0,0.95338981,16.841901,16.271873)">
</g>
<g
   id="g4402"
   transform="matrix(0.95338981,0,0,0.95338981,16.841901,16.271873)">
</g>
</svg>