<?xml version="1.0" encoding="utf-8"?>
<!-- Generator: Adobe Illustrator 24.1.0, SVG Export Plug-In . SVG Version: 6.00 Build 0)  -->
<svg version="1.1" id="Layer_1" xmlns="http://www.w3.org/2000/svg" xmlns:xlink="http://www.w3.org/1999/xlink" x="0px" y="0px"
	 viewBox="0 0 60 60" style="enable-background:new 0 0 60 60;" xml:space="preserve">
<style type="text/css">
	.st0{fill:#F7DF1E;}
</style>
<g>
	<path class="st0" d="M13.2,13.2h33.6v33.6H13.2V13.2z"/>
	<path d="M22,41.3l2.6-1.6c0.5,0.9,0.9,1.6,2,1.6c1,0,1.7-0.4,1.7-2V28.6h3.2v10.8c0,3.3-1.9,4.8-4.7,4.8
		C24.3,44.2,22.8,42.8,22,41.3"/>
	<path d="M33.2,40.9l2.6-1.5c0.7,1.1,1.6,1.9,3.1,1.9c1.3,0,2.1-0.7,2.1-1.6c0-1.1-0.9-1.5-2.3-2.1l-0.8-0.3c-2.3-1-3.8-2.2-3.8-4.8
		c0-2.4,1.8-4.2,4.6-4.2c2,0,3.4,0.7,4.5,2.5l-2.5,1.6c-0.5-1-1.1-1.4-2-1.4c-0.9,0-1.5,0.6-1.5,1.4c0,0.9,0.6,1.3,1.9,1.9l0.8,0.3
		c2.7,1.1,4.2,2.3,4.2,5c0,2.8-2.2,4.4-5.2,4.4C36,44.2,34.1,42.8,33.2,40.9"/>
</g>
</svg>
