<?xml version="1.0" encoding="utf-8"?>
<!-- Generator: Adobe Illustrator 24.1.0, SVG Export Plug-In . SVG Version: 6.00 Build 0)  -->
<svg version="1.1" id="Layer_1" xmlns="http://www.w3.org/2000/svg" xmlns:xlink="http://www.w3.org/1999/xlink" x="0px" y="0px"
	 viewBox="0 0 60 60" style="enable-background:new 0 0 60 60;" xml:space="preserve">
<style type="text/css">
	.st0{fill-rule:evenodd;clip-rule:evenodd;fill:#FFFFFF;}
	.st1{fill-rule:evenodd;clip-rule:evenodd;fill:#A6A385;}
	.st2{fill-rule:evenodd;clip-rule:evenodd;fill:#499D4A;}
	.st3{fill-rule:evenodd;clip-rule:evenodd;fill:#58AA50;}
</style>
<g>
	<path class="st0" d="M31.1,54.5l-1.3-0.4c0,0,0.2-6.7-2.2-7.1c-1.6-1.8,0.3-78.3,6-0.3c0,0-2,1-2.3,2.7
		C30.9,51,31.1,54.5,31.1,54.5L31.1,54.5z"/>
	<path class="st1" d="M31.1,54.5l-1.3-0.4c0,0,0.2-6.7-2.2-7.1c-1.6-1.8,0.3-78.3,6-0.3c0,0-2,1-2.3,2.7
		C30.9,51,31.1,54.5,31.1,54.5L31.1,54.5z"/>
	<path class="st0" d="M31.8,48.1c0,0,11.4-7.5,8.8-23.1C38,13.6,31.9,9.9,31.2,8.4c-0.7-1-1.4-2.8-1.4-2.8l0.5,31.6
		C30.3,37.3,29.3,46.9,31.8,48.1"/>
	<path class="st2" d="M31.8,48.1c0,0,11.4-7.5,8.8-23.1C38,13.6,31.9,9.9,31.2,8.4c-0.7-1-1.4-2.8-1.4-2.8l0.5,31.6
		C30.3,37.3,29.3,46.9,31.8,48.1"/>
	<path class="st0" d="M29.1,48.5c0,0-10.7-7.3-10.1-20.2c0.6-12.9,8.2-19.2,9.6-20.4c1-1,1-1.4,1.1-2.4c0.7,1.4,0.5,21.4,0.6,23.8
		C30.7,38.3,29.9,46.8,29.1,48.5z"/>
	<path class="st3" d="M29.1,48.5c0,0-10.7-7.3-10.1-20.2c0.6-12.9,8.2-19.2,9.6-20.4c1-1,1-1.4,1.1-2.4c0.7,1.4,0.5,21.4,0.6,23.8
		C30.7,38.3,29.9,46.8,29.1,48.5z"/>
</g>
</svg>
