<?xml version="1.0" encoding="utf-8"?>
<!-- Generator: Adobe Illustrator 24.1.0, SVG Export Plug-In . SVG Version: 6.00 Build 0)  -->
<svg version="1.1" id="Layer_1" xmlns="http://www.w3.org/2000/svg" xmlns:xlink="http://www.w3.org/1999/xlink" x="0px" y="0px"
	 viewBox="0 0 60 60" style="enable-background:new 0 0 60 60;" xml:space="preserve">
<style type="text/css">
	.st0{fill:#539E43;}
</style>
<g>
	<path class="st0" d="M30,51.2c-0.6,0-1.1-0.2-1.6-0.4l-5.2-3.1c-0.8-0.4-0.4-0.6-0.2-0.7c1-0.3,1.2-0.4,2.3-1c0.1-0.1,0.3,0,0.4,0
		l4,2.4c0.2,0.1,0.3,0.1,0.5,0l15.5-9c0.2-0.1,0.2-0.2,0.2-0.4V21c0-0.2-0.1-0.3-0.2-0.4l-15.5-8.9c-0.2-0.1-0.3-0.1-0.5,0
		l-15.5,8.9C14.1,20.7,14,20.9,14,21v17.9c0,0.2,0.1,0.3,0.2,0.4l4.2,2.4c2.3,1.2,3.7-0.2,3.7-1.6V22.6c0-0.2,0.2-0.5,0.5-0.5h2
		c0.2,0,0.5,0.2,0.5,0.5v17.7c0,3.1-1.7,4.9-4.6,4.9c-0.9,0-1.6,0-3.6-1l-4.1-2.3c-1-0.6-1.6-1.7-1.6-2.8V21.1
		c0-1.2,0.6-2.3,1.6-2.8l15.5-9c1-0.5,2.3-0.5,3.3,0l15.5,9c1,0.6,1.6,1.7,1.6,2.8V39c0,1.2-0.6,2.3-1.6,2.8l-15.5,9
		C31.1,51,30.5,51.2,30,51.2L30,51.2z M34.8,38.8c-6.8,0-8.2-3.1-8.2-5.8c0-0.2,0.2-0.5,0.5-0.5h2c0.2,0,0.4,0.2,0.4,0.4
		c0.3,2.1,1.2,3.1,5.3,3.1c3.3,0,4.7-0.7,4.7-2.5c0-1-0.4-1.7-5.5-2.3c-4.2-0.4-6.9-1.4-6.9-4.7c0-3.1,2.6-5,7.1-5
		c5,0,7.4,1.7,7.7,5.4c0,0.1,0,0.2-0.1,0.3c-0.1,0.1-0.2,0.2-0.3,0.2h-2c-0.2,0-0.4-0.2-0.4-0.3c-0.5-2.1-1.7-2.8-4.9-2.8
		c-3.6,0-4,1.2-4,2.2c0,1.1,0.5,1.5,5.3,2.1c4.8,0.6,7,1.5,7,4.9C42.5,36.9,39.7,38.8,34.8,38.8L34.8,38.8z"/>
</g>
</svg>
